<svg width="40" height="86" viewBox="0 0 40 86" fill="none" xmlns="http://www.w3.org/2000/svg">
<mask id="path-1-inside-1_1_6" fill="white">
<path fill-rule="evenodd" clip-rule="evenodd" d="M0 0H40V40H25V46H40V86H0V46H15V40H0V0Z"/>
</mask>
<path fill-rule="evenodd" clip-rule="evenodd" d="M0 0H40V40H25V46H40V86H0V46H15V40H0V0Z" fill="white"/>
<path d="M40 0H42V-2H40V0ZM0 0V-2H-2V0H0ZM40 40V42H42V40H40ZM25 40V38H23V40H25ZM25 46H23V48H25V46ZM40 46H42V44H40V46ZM40 86V88H42V86H40ZM0 86H-2V88H0V86ZM0 46V44H-2V46H0ZM15 46V48H17V46H15ZM15 40H17V38H15V40ZM0 40H-2V42H0V40ZM40 -2H0V2H40V-2ZM42 40V0H38V40H42ZM25 42H40V38H25V42ZM23 40V46H27V40H23ZM40 44H25V48H40V44ZM42 86V46H38V86H42ZM0 88H40V84H0V88ZM-2 46V86H2V46H-2ZM15 44H0V48H15V44ZM17 46V40H13V46H17ZM0 42H15V38H0V42ZM-2 0V40H2V0H-2Z" fill="black" mask="url(#path-1-inside-1_1_6)"/>
</svg>
